<svg id="svg" version="1.1" xmlns="http://www.w3.org/2000/svg" xmlns:xlink="http://www.w3.org/1999/xlink" width="400" height="400" viewBox="0, 0, 400,400"><g id="svgg"><path id="path0" d="M26.900 183.700 L 27.000 367.400 43.341 367.327 C 52.328 367.287,59.933 367.158,60.241 367.040 C 60.719 366.856,60.800 340.107,60.800 183.413 L 60.800 0.000 43.800 0.000 L 26.799 0.000 26.900 183.700 M350.098 36.700 L 350.200 73.400 361.700 73.506 L 373.200 73.612 373.200 36.806 L 373.200 0.000 361.598 -0.000 L 349.996 -0.000 350.098 36.700 " stroke="none" fill="#040404" fill-rule="evenodd"></path><path id="path1" d="M205.600 60.800 L 205.600 121.600 204.100 121.605 C 203.275 121.608,202.195 121.719,201.700 121.852 L 200.800 122.093 200.800 147.047 C 200.800 160.771,200.935 172.000,201.100 172.000 C 201.265 172.000,201.352 160.925,201.294 147.390 C 201.194 124.190,201.228 122.763,201.894 122.490 C 202.282 122.330,208.270 122.200,215.200 122.200 L 227.800 122.200 230.400 123.474 C 236.880 126.649,240.800 132.727,240.800 139.598 C 240.800 144.176,238.727 149.259,235.736 152.016 C 233.626 153.962,233.573 153.303,236.200 157.853 C 237.410 159.949,238.400 161.829,238.400 162.032 C 238.400 162.234,238.559 162.400,238.753 162.400 C 238.948 162.400,239.210 162.715,239.336 163.100 C 239.462 163.485,240.117 164.700,240.791 165.800 C 241.466 166.900,242.133 168.070,242.274 168.400 C 242.415 168.730,242.861 169.478,243.265 170.062 C 244.592 171.979,244.514 172.000,236.100 171.999 L 228.200 171.998 226.956 169.699 C 226.271 168.434,224.388 165.105,222.771 162.300 L 219.831 157.200 217.525 157.200 L 215.218 157.200 215.109 164.500 L 215.000 171.800 210.200 172.000 L 205.400 172.200 205.400 177.600 L 205.400 183.000 200.800 183.200 L 196.200 183.400 196.200 208.400 L 196.200 233.400 200.800 233.600 L 205.400 233.800 205.400 300.700 L 205.400 367.600 277.766 367.600 L 350.133 367.600 349.867 256.300 C 349.720 195.085,349.600 112.375,349.600 72.500 L 349.600 0.000 277.600 0.000 L 205.600 0.000 205.600 60.800 M102.300 122.032 C 101.559 122.464,101.166 171.285,101.900 171.738 C 102.065 171.840,102.200 160.826,102.200 147.262 L 102.200 122.600 114.200 122.400 C 121.959 122.271,125.423 122.095,124.000 121.903 C 120.652 121.452,103.117 121.556,102.300 122.032 M163.732 122.155 C 162.595 122.400,161.515 122.757,161.332 122.950 C 161.145 123.146,161.350 123.200,161.800 123.072 C 164.646 122.265,168.067 121.912,171.128 122.108 C 173.158 122.238,174.268 122.190,173.800 121.993 C 172.675 121.519,166.206 121.623,163.732 122.155 M287.400 128.200 L 287.400 134.200 280.504 134.309 L 273.608 134.419 273.504 153.109 L 273.400 171.800 266.300 171.909 L 259.200 172.018 259.200 153.218 L 259.200 134.418 252.100 134.309 L 245.000 134.200 244.888 128.619 C 244.827 125.550,244.867 122.803,244.977 122.516 C 245.139 122.093,249.204 122.013,266.289 122.096 L 287.400 122.200 287.400 128.200 M126.433 122.544 C 126.905 122.950,128.843 123.193,128.610 122.816 C 128.468 122.587,127.883 122.400,127.310 122.400 C 126.736 122.400,126.342 122.465,126.433 122.544 M174.833 122.544 C 175.305 122.950,177.243 123.193,177.010 122.816 C 176.868 122.587,176.283 122.400,175.710 122.400 C 175.136 122.400,174.742 122.465,174.833 122.544 M130.747 124.208 C 133.588 125.832,135.490 127.519,136.853 129.622 C 137.558 130.709,138.211 131.522,138.306 131.428 C 139.213 130.520,131.387 123.188,129.528 123.205 C 129.238 123.207,129.786 123.659,130.747 124.208 M154.323 126.421 C 150.616 128.994,145.205 135.995,145.219 138.200 C 145.220 138.420,145.904 137.314,146.739 135.741 C 148.794 131.871,151.192 129.107,154.532 126.762 C 156.068 125.683,157.162 124.809,156.963 124.820 C 156.763 124.831,155.575 125.552,154.323 126.421 M183.038 126.165 C 184.153 126.916,186.176 128.742,187.533 130.223 C 189.983 132.898,191.005 133.563,188.900 131.113 C 186.472 128.289,182.291 124.800,181.333 124.800 C 181.156 124.800,181.923 125.414,183.038 126.165 M139.440 135.066 C 139.808 136.599,140.000 136.744,140.000 135.490 C 140.000 134.917,139.813 134.332,139.584 134.190 C 139.311 134.021,139.262 134.323,139.440 135.066 M115.688 139.500 L 115.800 144.600 119.701 144.623 L 123.602 144.646 119.778 144.508 L 115.955 144.370 116.077 139.385 C 116.145 136.642,116.060 134.399,115.888 134.399 C 115.716 134.400,115.626 136.695,115.688 139.500 M165.000 134.800 C 164.708 135.273,165.099 135.273,166.200 134.800 C 166.971 134.469,166.969 134.455,166.124 134.428 C 165.642 134.413,165.136 134.580,165.000 134.800 M172.923 135.189 C 173.981 135.602,175.140 136.179,175.500 136.470 C 175.987 136.865,176.076 136.871,175.850 136.494 C 175.442 135.816,172.612 134.395,171.716 134.419 C 171.322 134.429,171.865 134.776,172.923 135.189 M215.200 139.400 L 215.200 144.400 219.700 144.387 C 225.444 144.371,226.400 143.673,226.400 139.497 C 226.400 137.726,226.200 137.140,225.171 135.891 L 223.942 134.400 219.571 134.400 L 215.200 134.400 215.200 139.400 M124.813 135.476 C 124.806 135.738,124.980 136.064,125.200 136.200 C 125.420 136.336,125.618 137.832,125.641 139.524 C 125.677 142.213,125.733 142.440,126.091 141.328 C 126.575 139.822,126.201 136.817,125.396 135.754 C 125.082 135.339,124.820 135.214,124.813 135.476 M161.317 137.306 C 160.018 138.675,158.608 141.141,158.936 141.470 C 159.044 141.577,159.451 140.975,159.841 140.132 C 160.232 139.290,161.071 138.090,161.708 137.466 C 162.344 136.842,162.793 136.259,162.705 136.172 C 162.617 136.084,161.993 136.594,161.317 137.306 M140.124 139.400 C 140.126 140.720,140.201 141.212,140.290 140.493 C 140.379 139.774,140.377 138.694,140.286 138.093 C 140.195 137.492,140.122 138.080,140.124 139.400 M192.428 137.876 C 192.518 138.915,193.144 139.796,193.172 138.924 C 193.187 138.442,193.020 137.936,192.800 137.800 C 192.580 137.664,192.413 137.698,192.428 137.876 M144.673 139.353 C 144.523 139.745,144.411 140.366,144.425 140.733 C 144.442 141.175,144.581 141.074,144.837 140.434 C 145.049 139.903,145.161 139.282,145.085 139.054 C 145.009 138.827,144.824 138.961,144.673 139.353 M193.463 141.280 C 193.800 143.049,194.000 143.201,194.000 141.690 C 194.000 141.007,193.823 140.338,193.606 140.204 C 193.360 140.052,193.306 140.455,193.463 141.280 M143.843 142.633 C 143.517 143.483,143.586 150.822,143.928 151.686 C 144.078 152.063,144.200 150.038,144.200 147.186 C 144.200 144.334,144.174 142.000,144.143 142.000 C 144.111 142.000,143.976 142.285,143.843 142.633 M158.229 143.029 C 158.081 143.615,158.051 144.184,158.161 144.294 C 158.271 144.404,158.481 144.015,158.629 143.429 C 158.776 142.842,158.806 142.273,158.696 142.163 C 158.586 142.053,158.376 142.442,158.229 143.029 M139.654 143.267 C 139.625 143.634,139.484 144.264,139.341 144.667 C 139.141 145.233,139.195 145.296,139.575 144.946 C 139.846 144.697,139.987 144.067,139.888 143.546 C 139.790 143.026,139.684 142.900,139.654 143.267 M179.795 146.985 C 179.798 149.285,179.922 150.860,180.072 150.484 C 180.427 149.591,180.423 144.401,180.067 143.501 C 179.915 143.117,179.792 144.684,179.795 146.985 M194.173 147.135 C 194.186 149.360,194.320 150.870,194.470 150.490 C 194.836 149.567,194.820 144.794,194.447 143.844 C 194.284 143.429,194.161 144.909,194.173 147.135 M135.670 151.209 C 134.719 152.314,133.009 153.752,131.870 154.405 C 130.732 155.058,130.042 155.594,130.338 155.596 C 131.432 155.604,135.307 152.458,136.862 150.300 C 138.080 148.609,137.582 148.989,135.670 151.209 M158.028 150.476 C 158.096 151.744,158.742 152.654,158.772 151.524 C 158.787 150.932,158.620 150.336,158.400 150.200 C 158.180 150.064,158.013 150.188,158.028 150.476 M193.335 153.458 C 193.079 154.526,192.738 155.760,192.576 156.200 C 192.385 156.722,192.418 156.861,192.672 156.600 C 193.245 156.011,194.107 153.044,193.942 152.224 C 193.864 151.835,193.591 152.390,193.335 153.458 M144.406 153.433 C 144.409 153.855,144.595 154.470,144.818 154.800 C 145.115 155.238,145.152 155.076,144.956 154.200 C 144.627 152.729,144.398 152.410,144.406 153.433 M158.800 153.053 C 158.800 154.242,161.793 157.883,163.400 158.647 L 164.600 159.218 163.613 158.509 C 162.013 157.359,160.515 155.650,159.816 154.177 C 159.210 152.901,158.800 152.447,158.800 153.053 M177.493 155.603 C 176.918 156.481,176.517 157.200,176.603 157.200 C 176.913 157.200,178.907 154.374,178.725 154.192 C 178.623 154.089,178.068 154.724,177.493 155.603 M128.200 156.000 C 127.429 156.331,127.431 156.345,128.276 156.372 C 128.758 156.387,129.264 156.220,129.400 156.000 C 129.692 155.527,129.301 155.527,128.200 156.000 M120.200 156.779 L 115.800 157.000 115.600 164.501 C 115.490 168.626,115.535 172.001,115.700 172.001 C 115.865 172.000,116.000 168.670,116.000 164.600 L 116.000 157.200 120.900 157.194 C 123.595 157.191,126.070 157.013,126.400 156.800 C 126.853 156.507,126.706 156.430,125.800 156.485 C 125.140 156.525,122.620 156.658,120.200 156.779 M190.653 160.100 L 189.933 161.400 190.758 160.400 C 191.489 159.513,191.814 158.800,191.486 158.800 C 191.424 158.800,191.049 159.385,190.653 160.100 M146.800 159.361 C 146.800 159.782,149.126 163.107,149.645 163.428 C 149.884 163.576,149.415 162.730,148.604 161.548 C 146.928 159.108,146.800 158.954,146.800 159.361 M165.400 159.600 C 166.501 160.073,166.892 160.073,166.600 159.600 C 166.464 159.380,165.958 159.213,165.476 159.228 C 164.631 159.255,164.629 159.269,165.400 159.600 M171.600 159.600 C 170.805 160.114,171.804 160.114,173.000 159.600 L 173.800 159.256 173.000 159.234 C 172.560 159.222,171.930 159.387,171.600 159.600 M186.784 164.745 C 185.024 166.528,182.821 168.291,181.495 168.978 C 180.246 169.626,179.296 170.229,179.385 170.318 C 180.068 171.001,187.323 165.436,189.218 162.775 C 190.385 161.136,190.197 161.289,186.784 164.745 M150.830 165.043 C 152.081 166.388,156.776 169.758,157.036 169.497 C 157.146 169.387,156.453 168.838,155.496 168.277 C 154.539 167.716,153.001 166.525,152.077 165.629 C 150.223 163.829,149.298 163.395,150.830 165.043 M161.600 171.600 C 161.930 171.813,162.560 171.978,163.000 171.966 L 163.800 171.944 163.000 171.600 C 161.804 171.086,160.805 171.086,161.600 171.600 M175.000 171.600 L 174.200 171.944 175.000 171.966 C 175.440 171.978,176.070 171.813,176.400 171.600 C 177.195 171.086,176.196 171.086,175.000 171.600 M165.467 172.455 C 165.870 172.614,167.460 172.744,169.000 172.744 C 170.540 172.744,172.130 172.614,172.533 172.455 C 172.936 172.297,171.346 172.167,169.000 172.167 C 166.654 172.167,165.064 172.297,165.467 172.455 M160.000 183.181 C 155.172 184.097,150.549 186.396,147.287 189.504 C 145.172 191.519,145.150 191.556,147.000 190.001 C 158.355 180.455,173.440 181.160,182.990 191.683 C 184.246 193.067,185.083 193.840,184.849 193.400 C 181.247 186.621,168.814 181.509,160.000 183.181 M288.665 183.393 C 297.916 185.142,305.666 192.309,308.352 201.600 C 315.111 224.982,287.092 243.444,267.961 228.214 C 262.116 223.561,258.400 215.806,258.400 208.259 C 258.400 206.583,258.604 204.354,258.853 203.306 C 262.144 189.475,275.092 180.827,288.665 183.393 M101.871 183.462 C 101.350 183.984,101.554 232.594,102.080 233.120 C 102.884 233.924,115.444 233.784,115.757 232.967 C 115.891 232.619,116.000 228.479,116.000 223.767 L 116.000 215.200 123.920 215.200 C 133.516 215.200,132.800 215.684,132.800 209.200 C 132.800 202.716,133.516 203.200,123.920 203.200 L 116.000 203.200 116.000 199.407 L 116.000 195.614 126.100 195.507 L 136.200 195.400 136.200 189.400 L 136.200 183.400 119.171 183.296 C 109.805 183.238,102.020 183.313,101.871 183.462 M209.767 183.443 C 210.332 183.659,210.400 185.690,210.400 202.243 L 210.400 220.800 220.967 220.800 C 226.779 220.800,231.819 220.909,232.167 221.043 C 233.095 221.399,233.111 232.444,232.185 233.213 C 231.532 233.754,197.709 233.562,196.818 233.011 C 196.535 232.836,196.400 224.854,196.400 208.189 L 196.400 183.625 201.100 183.499 C 203.685 183.429,206.550 183.333,207.467 183.286 C 208.384 183.239,209.419 183.309,209.767 183.443 M251.920 183.680 C 252.632 184.392,252.610 231.959,251.898 232.934 C 251.452 233.543,250.650 233.608,244.798 233.510 L 238.200 233.400 238.096 208.800 C 238.039 195.270,238.079 183.975,238.184 183.700 C 238.450 183.004,251.225 182.985,251.920 183.680 M136.000 189.393 L 136.000 195.186 125.900 195.293 L 115.800 195.400 115.800 199.400 L 115.800 203.400 123.570 203.509 C 133.018 203.641,132.400 203.256,132.400 209.016 C 132.400 215.401,133.297 214.800,123.765 214.800 L 115.615 214.800 115.508 223.900 L 115.400 233.000 109.254 233.111 C 105.062 233.186,102.932 233.075,102.554 232.762 C 101.964 232.272,101.683 184.450,102.267 183.867 C 102.413 183.720,110.063 183.600,119.267 183.600 L 136.000 183.600 136.000 189.393 M143.996 192.897 C 143.067 194.294,142.649 195.048,143.052 194.600 C 144.815 192.640,145.286 192.000,144.966 192.000 C 144.761 192.000,144.324 192.404,143.996 192.897 M141.419 196.900 C 140.289 199.399,139.611 201.320,139.620 202.000 C 139.625 202.330,139.954 201.700,140.352 200.600 C 140.750 199.500,141.467 197.835,141.946 196.900 C 142.425 195.965,142.675 195.200,142.502 195.200 C 142.330 195.200,141.843 195.965,141.419 196.900 M160.452 195.968 C 159.106 196.432,157.761 197.282,156.852 198.242 C 155.635 199.527,156.580 198.996,157.997 197.599 C 161.942 193.709,171.125 195.998,173.642 201.500 C 174.509 203.395,175.009 203.809,174.367 202.100 C 172.339 196.703,166.181 193.990,160.452 195.968 M279.832 196.406 C 274.769 198.383,271.178 206.603,273.158 211.681 C 273.355 212.187,273.741 213.355,274.015 214.278 C 276.410 222.340,289.445 223.476,293.075 215.939 C 298.641 204.381,290.429 192.268,279.832 196.406 M154.629 201.143 C 153.725 202.893,153.856 203.241,154.823 201.655 C 155.274 200.915,155.557 200.223,155.451 200.118 C 155.345 200.012,154.976 200.473,154.629 201.143 M188.434 201.600 C 188.446 201.930,188.611 202.560,188.800 203.000 L 189.144 203.800 189.166 203.000 C 189.178 202.560,189.013 201.930,188.800 201.600 C 188.455 201.067,188.415 201.067,188.434 201.600 M139.043 203.433 C 138.699 204.330,138.752 212.506,139.106 213.061 C 139.268 213.314,139.400 211.109,139.400 208.161 C 139.400 205.212,139.374 202.800,139.343 202.800 C 139.311 202.800,139.176 203.085,139.043 203.433 M153.488 203.733 C 153.010 204.949,153.124 205.973,153.639 205.087 C 153.867 204.696,153.991 204.066,153.915 203.687 C 153.788 203.060,153.751 203.064,153.488 203.733 M174.973 208.200 C 174.973 210.840,175.093 212.460,175.239 211.800 C 175.386 211.140,175.505 209.520,175.505 208.200 C 175.505 206.880,175.386 205.260,175.239 204.600 C 175.093 203.940,174.973 205.560,174.973 208.200 M189.298 208.400 C 189.291 210.755,189.411 211.896,189.615 211.400 C 190.024 210.405,190.024 206.939,189.615 205.600 C 189.424 204.976,189.305 206.027,189.298 208.400 M153.256 211.400 C 153.256 211.840,153.411 212.560,153.600 213.000 L 153.944 213.800 153.944 213.000 C 153.944 212.560,153.789 211.840,153.600 211.400 L 153.256 210.600 153.256 211.400 M174.180 213.843 C 174.049 214.259,173.762 214.933,173.543 215.339 C 173.324 215.745,173.245 216.178,173.367 216.300 C 173.489 216.423,173.872 215.846,174.218 215.018 C 174.564 214.191,174.751 213.417,174.633 213.300 C 174.515 213.182,174.311 213.426,174.180 213.843 M188.854 213.667 C 188.825 214.034,188.684 214.664,188.541 215.067 C 188.341 215.633,188.395 215.696,188.775 215.346 C 189.046 215.097,189.187 214.467,189.088 213.946 C 188.990 213.426,188.884 213.300,188.854 213.667 M139.600 214.910 C 139.600 215.483,139.787 216.068,140.016 216.210 C 140.289 216.379,140.338 216.077,140.160 215.334 C 139.792 213.801,139.600 213.656,139.600 214.910 M154.000 214.322 C 154.000 215.002,156.346 218.299,157.446 219.165 C 160.492 221.561,166.214 222.093,169.311 220.267 C 170.958 219.296,173.649 216.800,173.049 216.800 C 172.884 216.800,172.332 217.295,171.823 217.900 C 167.591 222.929,157.933 221.524,155.056 215.461 C 154.391 214.059,154.000 213.638,154.000 214.322 M141.205 219.038 C 141.198 219.700,144.130 224.098,145.867 226.030 C 148.887 229.390,155.323 232.918,159.304 233.395 C 160.489 233.537,160.137 233.366,158.137 232.825 C 151.302 230.978,145.830 226.702,142.236 220.400 C 141.672 219.410,141.207 218.797,141.205 219.038 M184.230 223.612 C 180.587 228.389,175.503 231.570,169.200 233.014 C 167.924 233.306,167.431 233.535,168.027 233.559 C 172.839 233.751,182.989 227.279,185.637 222.332 C 186.305 221.083,185.827 221.518,184.230 223.612 M163.107 233.890 C 163.826 233.979,164.906 233.977,165.507 233.886 C 166.108 233.795,165.520 233.722,164.200 233.724 C 162.880 233.726,162.388 233.801,163.107 233.890 " stroke="none" fill="#ababb3" fill-rule="evenodd"></path><path id="path2" d="M61.600 183.400 L 61.600 366.800 77.976 366.800 C 88.463 366.800,94.442 366.944,94.600 367.200 C 94.763 367.464,113.668 367.600,150.016 367.600 L 205.185 367.600 205.402 366.700 C 205.521 366.205,205.570 336.100,205.509 299.800 L 205.400 233.800 200.800 233.600 L 196.200 233.400 196.200 208.400 L 196.200 183.400 200.800 183.200 L 205.400 183.000 205.400 177.600 L 205.400 172.200 203.100 172.080 L 200.800 171.960 200.800 147.027 L 200.800 122.093 201.700 121.852 C 202.195 121.719,203.275 121.608,204.100 121.605 L 205.600 121.600 205.600 60.800 L 205.600 0.000 133.600 0.000 L 61.600 0.000 61.600 183.400 M349.797 109.600 C 349.797 169.990,349.843 194.695,349.900 164.500 C 349.957 134.305,349.957 84.895,349.900 54.700 C 349.843 24.505,349.797 49.210,349.797 109.600 M125.084 122.049 C 126.798 122.296,128.371 122.656,128.580 122.849 C 128.789 123.042,129.204 123.200,129.502 123.200 C 130.401 123.200,134.618 126.260,136.091 127.981 C 137.308 129.402,137.980 130.574,139.751 134.361 C 140.323 135.584,140.311 143.632,139.735 144.868 C 139.497 145.381,138.876 146.700,138.356 147.800 C 137.329 149.974,133.265 154.302,131.500 155.102 C 127.873 156.745,127.105 156.891,121.100 157.082 L 116.000 157.244 116.000 164.631 L 116.000 172.018 108.900 171.909 L 101.800 171.800 101.696 147.200 C 101.599 124.428,101.642 122.563,102.272 122.100 C 103.159 121.449,120.646 121.410,125.084 122.049 M174.294 122.053 C 178.951 123.162,184.361 126.119,187.000 129.000 C 189.086 131.277,190.000 132.424,190.000 132.763 C 190.000 132.967,190.135 133.193,190.300 133.267 C 190.787 133.483,193.200 138.448,193.200 139.233 C 193.200 139.629,193.361 140.052,193.558 140.174 C 193.922 140.399,194.203 141.937,194.653 146.151 C 195.560 154.654,189.191 165.517,180.842 169.708 C 172.915 173.687,165.771 173.763,157.800 169.954 C 151.846 167.108,146.704 161.095,144.840 154.800 C 144.547 153.810,144.148 152.478,143.953 151.840 C 143.487 150.309,143.500 143.786,143.973 142.228 C 144.178 141.553,144.562 140.248,144.827 139.329 C 147.143 131.294,154.903 124.280,163.800 122.182 C 166.455 121.556,171.922 121.489,174.294 122.053 M116.267 134.667 C 116.120 134.813,116.000 137.063,116.000 139.667 L 116.000 144.400 119.930 144.400 C 125.088 144.400,125.606 143.958,125.587 139.574 C 125.574 136.495,125.251 135.677,123.726 134.865 C 122.804 134.374,116.721 134.212,116.267 134.667 M165.098 135.181 C 162.018 136.385,159.915 139.060,158.456 143.628 C 157.894 145.390,157.855 149.863,158.400 150.200 C 158.620 150.336,158.800 150.870,158.800 151.386 C 158.800 154.040,163.212 159.200,165.482 159.200 C 165.899 159.200,166.438 159.398,166.679 159.639 C 167.366 160.326,174.000 159.524,174.000 158.755 C 174.000 158.560,174.249 158.400,174.553 158.400 C 178.076 158.400,181.460 146.403,179.246 141.761 C 178.942 141.122,178.492 140.168,178.247 139.641 C 176.322 135.499,169.878 133.313,165.098 135.181 M171.907 183.995 C 179.797 186.604,185.642 192.387,188.293 200.207 C 189.434 203.571,190.148 207.985,189.852 209.833 C 189.713 210.695,189.487 212.259,189.348 213.308 C 189.210 214.358,188.940 215.314,188.748 215.432 C 188.557 215.550,188.403 215.952,188.406 216.324 C 188.428 218.827,183.332 225.896,179.423 228.783 C 165.165 239.316,147.155 233.569,139.990 216.200 C 138.934 213.639,138.460 205.547,139.217 203.000 C 140.401 199.019,141.749 195.870,142.698 194.871 C 142.974 194.581,143.200 194.179,143.200 193.979 C 143.200 193.105,149.560 187.304,151.800 186.134 C 158.284 182.748,165.740 181.955,171.907 183.995 M136.200 189.400 L 136.200 195.400 126.100 195.507 L 116.000 195.614 116.000 199.407 L 116.000 203.200 123.920 203.200 C 133.516 203.200,132.800 202.716,132.800 209.200 C 132.800 215.684,133.516 215.200,123.920 215.200 L 116.000 215.200 116.000 223.767 C 116.000 228.479,115.891 232.619,115.757 232.967 C 115.444 233.784,102.884 233.924,102.080 233.120 C 101.554 232.594,101.350 183.984,101.871 183.462 C 102.020 183.313,109.805 183.238,119.171 183.296 L 136.200 183.400 136.200 189.400 M161.400 196.061 C 155.261 198.095,151.830 205.038,153.645 211.754 C 156.453 222.147,169.371 224.584,173.500 215.500 C 173.775 214.895,174.218 213.937,174.483 213.371 C 175.457 211.296,175.104 204.430,173.897 201.962 C 171.514 197.091,166.061 194.516,161.400 196.061 " stroke="none" fill="#848484" fill-rule="evenodd"></path><path id="path3" d="M350.099 146.900 L 350.200 220.200 360.761 220.307 C 369.750 220.398,371.422 220.323,371.993 219.806 C 372.363 219.472,372.785 219.319,372.932 219.466 C 373.080 219.613,373.200 186.853,373.200 146.667 L 373.200 73.600 361.599 73.600 L 349.998 73.600 350.099 146.900 M60.884 367.276 C 60.521 367.639,60.400 371.796,60.400 383.880 L 60.400 400.000 61.440 400.000 C 62.638 400.000,65.200 398.879,65.200 398.354 C 65.200 398.159,65.436 398.000,65.725 398.000 C 66.013 398.000,66.598 397.685,67.025 397.300 C 67.451 396.915,68.295 396.345,68.900 396.032 C 69.505 395.720,70.000 395.315,70.000 395.132 C 70.000 394.950,70.270 394.800,70.600 394.800 C 70.930 394.800,71.200 394.620,71.200 394.400 C 71.200 394.180,71.470 394.000,71.800 394.000 C 72.130 394.000,72.400 393.820,72.400 393.600 C 72.400 393.380,72.630 393.200,72.912 393.200 C 73.193 393.200,73.683 392.840,74.000 392.400 C 74.317 391.960,74.875 391.600,75.239 391.600 C 75.604 391.600,76.126 391.330,76.400 391.000 C 77.137 390.112,80.800 391.006,80.800 392.074 C 80.800 392.253,81.036 392.400,81.325 392.400 C 81.613 392.400,82.198 392.715,82.625 393.100 C 83.051 393.485,83.895 394.055,84.500 394.368 C 85.105 394.680,85.600 395.085,85.600 395.268 C 85.600 395.450,85.836 395.600,86.125 395.600 C 86.413 395.600,86.998 395.915,87.425 396.300 C 87.851 396.685,88.695 397.255,89.300 397.568 C 89.905 397.880,90.400 398.285,90.400 398.468 C 90.400 398.650,90.648 398.800,90.951 398.800 C 91.254 398.800,91.726 399.070,92.000 399.400 C 92.274 399.730,93.018 400.000,93.653 400.000 L 94.809 400.000 94.704 383.500 L 94.600 367.000 77.984 366.896 C 65.395 366.817,61.251 366.909,60.884 367.276 " stroke="none" fill="#b2051e" fill-rule="evenodd"></path><path id="path4" d="M372.004 219.795 C 371.548 220.344,370.113 220.410,360.741 220.312 L 349.999 220.200 350.000 293.906 L 350.000 367.612 361.500 367.506 L 373.000 367.400 373.101 293.621 C 373.157 253.043,373.050 219.690,372.864 219.504 C 372.678 219.318,372.291 219.449,372.004 219.795 " stroke="none" fill="#fc9734" fill-rule="evenodd"></path><path id="path5" d="M165.600 122.643 C 162.949 122.950,156.510 125.376,155.600 126.411 C 155.490 126.536,154.770 127.076,154.000 127.611 C 145.137 133.764,141.881 147.146,146.704 157.600 C 152.737 170.680,169.136 175.758,181.600 168.408 C 185.125 166.329,190.395 161.113,190.399 159.700 C 190.399 159.425,190.580 159.200,190.800 159.200 C 191.020 159.200,191.200 158.964,191.200 158.675 C 191.200 158.386,191.560 157.405,192.000 156.494 C 192.440 155.584,192.800 154.506,192.800 154.099 C 192.800 153.693,192.990 153.170,193.222 152.938 C 193.754 152.406,193.513 142.408,192.918 140.328 C 191.119 134.038,182.722 124.400,179.042 124.400 C 178.715 124.400,178.336 124.220,178.200 124.000 C 178.064 123.780,177.549 123.600,177.056 123.600 C 176.563 123.600,175.989 123.433,175.780 123.229 C 175.361 122.820,167.819 122.385,165.600 122.643 M102.400 147.200 L 102.400 171.600 108.800 171.600 L 115.200 171.600 115.200 164.574 C 115.200 155.348,114.704 156.001,121.714 155.994 C 127.939 155.987,129.072 155.739,132.282 153.677 C 139.777 148.862,141.924 137.678,136.788 130.200 C 135.374 128.141,132.394 125.200,131.721 125.200 C 131.434 125.200,131.200 125.041,131.200 124.847 C 131.200 124.652,130.885 124.389,130.500 124.261 C 130.115 124.133,129.080 123.755,128.200 123.420 C 126.897 122.925,124.350 122.811,114.500 122.806 L 102.400 122.800 102.400 147.200 M201.600 147.200 L 201.600 171.600 208.000 171.600 L 214.400 171.600 214.405 164.900 C 214.413 156.140,214.329 156.398,217.147 156.406 C 219.807 156.413,220.047 156.539,221.154 158.500 C 222.431 160.765,223.376 162.411,224.540 164.400 C 225.119 165.390,226.269 167.414,227.096 168.897 L 228.600 171.595 236.149 171.597 C 242.138 171.599,243.614 171.497,243.292 171.100 C 243.068 170.825,242.506 169.925,242.043 169.100 C 241.579 168.275,240.860 167.015,240.445 166.300 C 232.653 152.876,233.038 154.071,235.622 151.339 C 242.999 143.539,241.416 130.990,232.318 125.146 C 228.726 122.839,228.526 122.813,214.500 122.806 L 201.600 122.800 201.600 147.200 M245.206 127.900 C 245.214 134.493,244.575 133.959,252.617 134.090 L 259.400 134.200 259.504 152.900 L 259.608 171.600 266.200 171.600 L 272.792 171.600 272.896 152.900 L 273.000 134.200 279.783 134.090 C 287.825 133.959,287.186 134.493,287.194 127.900 L 287.200 122.800 266.200 122.800 L 245.200 122.800 245.206 127.900 M124.519 134.577 C 127.537 136.572,127.460 143.137,124.400 144.683 C 122.841 145.471,115.754 145.379,115.443 144.567 C 115.021 143.469,115.180 135.185,115.639 134.328 C 116.236 133.211,122.728 133.393,124.519 134.577 M174.169 134.886 C 185.518 140.676,181.686 160.400,169.211 160.400 C 163.482 160.400,160.593 158.195,158.051 151.881 C 157.492 150.494,157.451 142.939,158.000 142.600 C 158.220 142.464,158.400 142.001,158.400 141.572 C 158.400 136.154,168.369 131.928,174.169 134.886 M225.453 135.428 C 227.353 137.444,227.450 141.451,225.651 143.607 L 224.501 144.984 219.979 145.139 C 214.299 145.333,214.400 145.434,214.400 139.556 C 214.400 133.608,214.040 134.000,219.496 134.000 L 224.106 134.000 225.453 135.428 M158.832 184.242 C 150.257 186.117,143.363 192.420,140.662 200.855 C 139.480 204.547,139.039 208.296,139.534 210.441 C 139.790 211.552,140.000 212.977,140.000 213.607 C 140.000 214.237,140.180 214.864,140.400 215.000 C 140.620 215.136,140.800 215.572,140.800 215.968 C 140.800 219.487,147.712 227.779,152.785 230.344 C 159.847 233.916,170.464 233.910,175.662 230.331 C 176.246 229.929,176.887 229.600,177.086 229.600 C 177.286 229.600,177.798 229.285,178.225 228.900 C 178.652 228.515,179.692 227.683,180.536 227.052 C 187.481 221.862,190.959 208.521,187.563 200.100 C 182.588 187.762,171.279 181.520,158.832 184.242 M201.097 183.890 L 196.794 184.027 196.897 208.314 L 197.000 232.600 214.511 232.704 L 232.022 232.808 231.911 227.104 L 231.800 221.400 220.800 221.200 L 209.800 221.000 209.600 202.400 L 209.400 183.800 207.400 183.776 C 206.300 183.763,203.464 183.814,201.097 183.890 M238.400 208.200 L 238.400 232.820 244.900 232.710 L 251.400 232.600 251.400 208.200 L 251.400 183.800 244.900 183.690 L 238.400 183.580 238.400 208.200 M278.000 184.172 C 260.690 188.758,253.420 208.507,263.735 222.923 C 272.472 235.133,289.776 236.752,300.951 226.406 C 306.050 221.686,308.525 215.892,308.562 208.586 C 308.586 203.803,308.240 202.150,306.257 197.600 C 303.554 191.396,296.974 185.992,289.754 184.044 C 287.639 183.474,280.335 183.553,278.000 184.172 M102.497 208.300 L 102.600 232.600 108.900 232.710 L 115.200 232.820 115.206 224.110 C 115.209 219.320,115.353 215.179,115.524 214.909 C 115.750 214.553,118.046 214.387,123.818 214.309 L 131.800 214.200 131.800 209.200 L 131.800 204.200 123.745 204.092 C 114.443 203.967,115.215 204.398,115.205 199.333 C 115.197 194.821,114.240 195.200,125.643 195.200 L 135.600 195.200 135.600 189.600 L 135.600 184.000 118.997 184.000 L 102.394 184.000 102.497 208.300 M169.237 196.100 C 179.476 201.480,177.700 218.937,166.644 221.590 C 153.087 224.842,146.806 202.888,159.354 196.111 C 161.727 194.830,166.809 194.824,169.237 196.100 M287.664 195.700 C 294.324 197.716,297.408 207.292,293.945 215.200 C 290.187 223.783,278.285 223.840,273.947 215.296 C 268.418 204.408,276.814 192.415,287.664 195.700 " stroke="none" fill="#fbfbfb" fill-rule="evenodd"></path><path id="path6" d="M60.700 183.500 L 60.600 367.000 55.400 367.218 L 50.200 367.437 55.420 367.518 C 59.044 367.575,60.787 367.453,61.120 367.120 C 61.747 366.493,61.827 0.000,61.200 -0.000 C 60.935 -0.000,60.767 61.633,60.700 183.500 " stroke="none" fill="#646464" fill-rule="evenodd"></path><path id="path7" d="M165.000 122.351 C 164.340 122.493,166.320 122.613,169.400 122.619 C 172.911 122.625,174.403 122.521,173.400 122.338 C 171.476 121.987,166.666 121.995,165.000 122.351 M203.600 122.349 L 201.400 122.600 201.400 147.200 L 201.400 171.800 208.200 171.800 L 215.000 171.800 215.109 164.500 L 215.218 157.200 217.525 157.200 L 219.831 157.200 222.771 162.300 C 224.388 165.105,226.271 168.434,226.956 169.699 L 228.200 171.998 236.100 171.999 C 244.514 172.000,244.592 171.979,243.265 170.062 C 242.861 169.478,242.415 168.730,242.274 168.400 C 242.133 168.070,241.466 166.900,240.791 165.800 C 240.117 164.700,239.462 163.485,239.336 163.100 C 239.210 162.715,238.948 162.400,238.753 162.400 C 238.559 162.400,238.400 162.234,238.400 162.032 C 238.400 161.829,237.410 159.949,236.200 157.853 C 233.573 153.303,233.626 153.962,235.736 152.016 C 244.402 144.029,241.583 128.954,230.400 123.474 L 227.800 122.200 216.800 122.149 C 210.750 122.121,204.810 122.211,203.600 122.349 M244.977 122.516 C 244.867 122.803,244.827 125.550,244.888 128.619 L 245.000 134.200 252.100 134.309 L 259.200 134.418 259.200 153.218 L 259.200 172.018 266.300 171.909 L 273.400 171.800 273.504 153.109 L 273.608 134.419 280.504 134.309 L 287.400 134.200 287.400 128.200 L 287.400 122.200 266.289 122.096 C 249.204 122.013,245.139 122.093,244.977 122.516 M102.184 122.900 C 102.079 123.175,102.039 134.290,102.096 147.600 L 102.200 171.800 108.800 171.800 L 115.400 171.800 115.600 164.400 L 115.800 157.000 121.538 156.728 C 129.066 156.372,129.241 156.000,121.881 156.000 C 114.677 156.000,115.200 155.328,115.200 164.574 L 115.200 171.600 108.800 171.600 L 102.400 171.600 102.400 147.206 L 102.400 122.812 114.500 122.700 L 126.600 122.588 114.487 122.494 C 105.096 122.421,102.332 122.512,102.184 122.900 M161.400 123.200 L 160.600 123.544 161.400 123.566 C 161.840 123.578,162.470 123.413,162.800 123.200 C 163.595 122.686,162.596 122.686,161.400 123.200 M175.800 123.200 C 175.936 123.420,176.442 123.587,176.924 123.572 C 177.769 123.545,177.771 123.531,177.000 123.200 C 175.899 122.727,175.508 122.727,175.800 123.200 M228.811 123.306 C 240.376 127.354,244.041 142.438,235.622 151.339 C 233.038 154.071,232.653 152.876,240.445 166.300 C 240.860 167.015,241.579 168.275,242.043 169.100 C 242.506 169.925,243.068 170.825,243.292 171.100 C 243.614 171.497,242.138 171.599,236.149 171.597 L 228.600 171.595 227.096 168.897 C 226.269 167.414,225.119 165.390,224.540 164.400 C 223.376 162.411,222.431 160.765,221.154 158.500 C 220.047 156.539,219.807 156.413,217.147 156.406 C 214.329 156.398,214.413 156.140,214.405 164.900 L 214.400 171.600 208.000 171.600 L 201.600 171.600 201.600 147.200 L 201.600 122.800 214.500 122.806 C 223.694 122.810,227.805 122.954,228.811 123.306 M287.194 127.900 C 287.186 134.493,287.825 133.959,279.783 134.090 L 273.000 134.200 272.896 152.900 L 272.792 171.600 266.200 171.600 L 259.608 171.600 259.504 152.900 L 259.400 134.200 252.617 134.090 C 244.575 133.959,245.214 134.493,245.206 127.900 L 245.200 122.800 266.200 122.800 L 287.200 122.800 287.194 127.900 M157.861 124.646 C 156.794 125.201,155.998 125.731,156.090 125.824 C 156.273 126.006,160.400 124.034,160.400 123.764 C 160.400 123.436,159.761 123.657,157.861 124.646 M180.000 124.516 C 180.000 124.608,181.239 125.506,182.752 126.513 C 186.259 128.844,188.943 131.918,191.124 136.096 C 192.072 137.913,192.727 138.950,192.579 138.400 C 191.540 134.543,185.607 127.381,181.700 125.268 C 180.765 124.762,180.000 124.424,180.000 124.516 M133.945 126.829 C 136.373 129.294,137.818 131.492,138.618 133.940 C 138.994 135.090,139.395 135.938,139.509 135.824 C 140.348 134.986,136.325 128.222,133.865 126.335 L 132.200 125.057 133.945 126.829 M153.200 127.730 C 149.676 130.500,145.797 136.258,145.068 139.800 C 144.833 140.945,144.841 140.954,145.251 140.000 C 147.139 135.612,148.005 133.979,149.378 132.221 C 151.269 129.800,152.892 128.227,154.449 127.307 C 155.082 126.933,155.600 126.486,155.600 126.314 C 155.600 125.848,155.578 125.860,153.200 127.730 M115.828 133.955 C 115.633 134.271,116.760 134.400,119.718 134.400 C 123.585 134.400,123.959 134.470,124.942 135.381 C 125.524 135.920,126.000 136.203,126.000 136.008 C 126.000 134.356,116.736 132.486,115.828 133.955 M166.600 133.960 C 165.760 134.173,166.432 134.273,168.838 134.292 C 180.685 134.388,185.051 151.218,175.099 158.427 C 174.208 159.072,173.614 159.600,173.778 159.600 C 174.976 159.600,177.981 156.598,179.154 154.229 C 184.334 143.767,176.673 131.399,166.600 133.960 M214.643 134.633 C 214.509 134.981,214.400 137.196,214.400 139.556 C 214.400 145.434,214.299 145.333,219.979 145.139 L 224.501 144.984 225.651 143.607 C 227.450 141.451,227.353 137.444,225.453 135.428 L 224.106 134.000 219.496 134.000 C 215.661 134.000,214.845 134.106,214.643 134.633 M162.731 135.678 C 161.721 136.381,160.669 137.318,160.393 137.760 C 160.117 138.203,160.751 137.807,161.802 136.882 C 162.853 135.957,163.947 135.200,164.233 135.200 C 164.519 135.200,164.864 135.020,165.000 134.800 C 165.462 134.052,164.573 134.397,162.731 135.678 M225.171 135.891 C 226.200 137.140,226.400 137.726,226.400 139.497 C 226.400 143.673,225.444 144.371,219.700 144.387 L 215.200 144.400 215.200 139.400 L 215.200 134.400 219.571 134.400 L 223.942 134.400 225.171 135.891 M115.281 139.267 C 115.172 145.555,114.917 145.201,119.543 145.194 C 123.982 145.187,125.108 144.773,126.081 142.789 C 126.828 141.264,127.008 138.145,126.404 137.200 C 126.146 136.796,126.097 137.254,126.255 138.606 C 126.795 143.230,124.980 144.883,119.546 144.716 L 115.800 144.600 115.581 139.600 L 115.362 134.600 115.281 139.267 M139.740 139.600 C 139.740 141.470,139.809 142.235,139.893 141.300 C 139.977 140.365,139.977 138.835,139.893 137.900 C 139.809 136.965,139.740 137.730,139.740 139.600 M159.021 139.824 C 158.652 140.387,158.407 141.102,158.475 141.412 C 158.544 141.723,158.902 141.263,159.270 140.389 C 160.046 138.551,159.969 138.377,159.021 139.824 M192.834 140.200 C 192.822 140.640,192.987 141.270,193.200 141.600 C 193.714 142.395,193.714 141.396,193.200 140.200 L 192.856 139.400 192.834 140.200 M144.254 143.056 C 143.932 145.409,143.964 149.340,144.323 151.358 C 144.484 152.264,144.600 150.462,144.600 147.058 C 144.600 140.471,144.603 140.510,144.254 143.056 M157.867 142.667 C 157.720 142.813,157.623 143.668,157.650 144.567 L 157.700 146.200 157.999 144.400 C 158.316 142.496,158.296 142.238,157.867 142.667 M193.698 147.200 C 193.695 151.341,193.733 151.589,194.080 149.685 C 194.326 148.335,194.328 146.670,194.084 145.085 C 193.719 142.710,193.702 142.804,193.698 147.200 M139.073 143.753 C 138.923 144.145,138.811 144.766,138.825 145.133 C 138.842 145.575,138.981 145.474,139.237 144.834 C 139.449 144.303,139.561 143.682,139.485 143.454 C 139.409 143.227,139.224 143.361,139.073 143.753 M137.742 147.500 C 136.676 149.798,134.549 152.221,132.370 153.619 C 130.331 154.928,129.724 155.577,131.300 154.764 C 134.013 153.364,137.096 150.103,138.197 147.469 C 139.002 145.543,138.638 145.567,137.742 147.500 M157.606 149.433 C 157.609 150.295,157.770 151.249,157.963 151.554 C 158.178 151.893,158.232 151.349,158.104 150.154 C 157.842 147.717,157.598 147.364,157.606 149.433 M193.067 153.067 C 192.920 153.213,192.811 153.708,192.825 154.167 C 192.849 154.933,192.882 154.923,193.234 154.042 C 193.626 153.063,193.544 152.589,193.067 153.067 M144.806 153.508 C 144.738 159.190,153.838 168.689,161.800 171.245 C 171.472 174.351,186.055 169.153,189.980 161.200 C 190.262 160.629,189.817 160.973,188.943 162.000 C 178.879 173.835,163.062 175.217,152.249 165.206 C 149.453 162.618,145.616 156.564,145.594 154.704 C 145.585 154.006,144.814 152.834,144.806 153.508 M159.224 154.633 C 159.211 154.872,159.847 155.772,160.638 156.633 C 161.581 157.661,161.753 157.771,161.138 156.954 C 160.622 156.268,159.986 155.368,159.724 154.954 C 159.461 154.539,159.236 154.395,159.224 154.633 M191.833 156.833 C 191.440 157.724,191.205 158.538,191.309 158.643 C 191.414 158.748,191.800 158.083,192.167 157.167 C 193.034 155.000,192.762 154.728,191.833 156.833 M162.400 158.556 C 162.400 159.778,172.245 161.220,172.938 160.100 C 173.040 159.935,171.632 159.863,169.808 159.939 C 167.103 160.053,166.143 159.924,164.595 159.239 C 162.621 158.366,162.400 158.297,162.400 158.556 M279.119 183.428 C 265.532 186.134,255.593 200.600,258.832 212.954 C 259.842 216.808,260.233 217.916,261.316 220.000 C 272.909 242.299,304.736 236.489,309.207 211.257 C 310.105 206.188,308.361 199.428,304.749 193.979 C 299.308 185.769,288.892 181.481,279.119 183.428 M163.300 183.487 C 163.905 183.578,164.895 183.578,165.500 183.487 C 166.105 183.395,165.610 183.320,164.400 183.320 C 163.190 183.320,162.695 183.395,163.300 183.487 M207.400 183.563 L 209.400 183.800 209.600 202.400 L 209.800 221.000 220.800 221.200 L 231.800 221.400 231.911 227.104 L 232.022 232.808 214.511 232.704 L 197.000 232.600 196.897 208.314 L 196.794 184.027 201.097 183.899 L 205.400 183.770 200.900 183.685 L 196.400 183.600 196.400 208.176 C 196.400 224.850,196.535 232.836,196.818 233.011 C 197.709 233.562,231.532 233.754,232.185 233.213 C 233.111 232.444,233.095 221.399,232.167 221.043 C 231.819 220.909,226.779 220.800,220.967 220.800 L 210.400 220.800 210.400 202.243 C 210.400 181.417,210.686 183.148,207.267 183.263 L 205.400 183.326 207.400 183.563 M238.184 183.700 C 238.079 183.975,238.039 195.270,238.096 208.800 L 238.200 233.400 244.798 233.510 C 250.650 233.608,251.452 233.543,251.898 232.934 C 252.610 231.959,252.632 184.392,251.920 183.680 C 251.225 182.985,238.450 183.004,238.184 183.700 M102.267 183.867 C 101.683 184.450,101.964 232.272,102.554 232.762 C 102.932 233.075,105.062 233.186,109.254 233.111 L 115.400 233.000 115.412 224.000 L 115.424 215.000 115.304 223.910 L 115.185 232.820 108.892 232.710 L 102.600 232.600 102.497 208.300 L 102.394 184.000 118.986 184.000 L 135.578 184.000 135.701 189.700 L 135.824 195.400 135.912 189.500 L 136.000 183.600 119.267 183.600 C 110.063 183.600,102.413 183.720,102.267 183.867 M158.200 184.000 L 157.400 184.344 158.200 184.325 C 158.640 184.314,159.540 184.168,160.200 184.000 L 161.400 183.695 160.200 183.675 C 159.540 183.665,158.640 183.811,158.200 184.000 M167.633 183.744 C 167.725 183.824,168.610 183.996,169.600 184.127 C 170.802 184.286,171.134 184.247,170.600 184.010 C 169.836 183.672,167.286 183.443,167.633 183.744 M251.400 208.200 L 251.400 232.600 244.900 232.710 L 238.400 232.820 238.400 208.200 L 238.400 183.580 244.900 183.690 L 251.400 183.800 251.400 208.200 M289.754 184.044 C 296.974 185.992,303.554 191.396,306.257 197.600 C 308.240 202.150,308.586 203.803,308.562 208.586 C 308.507 219.333,302.535 227.821,292.190 231.856 C 288.877 233.149,280.037 233.489,277.000 232.442 C 253.782 224.434,252.750 193.799,275.400 184.961 C 278.742 183.657,286.485 183.162,289.754 184.044 M153.100 185.829 C 151.549 186.670,151.725 186.961,153.300 186.159 C 154.808 185.393,155.075 185.194,154.567 185.216 C 154.365 185.225,153.705 185.501,153.100 185.829 M149.893 187.814 C 149.072 188.372,148.400 188.915,148.400 189.020 C 148.400 189.125,149.120 188.735,150.000 188.153 C 151.397 187.228,151.870 186.800,151.493 186.800 C 151.434 186.800,150.714 187.256,149.893 187.814 M179.600 188.462 C 179.600 188.785,183.289 192.445,183.450 192.283 C 183.523 192.211,182.686 191.269,181.591 190.191 C 180.496 189.112,179.600 188.335,179.600 188.462 M145.755 191.391 C 143.831 193.619,142.154 196.000,142.508 196.000 C 142.610 196.000,143.142 195.325,143.691 194.500 C 144.239 193.675,145.448 192.220,146.376 191.266 C 147.305 190.312,147.980 189.447,147.876 189.343 C 147.772 189.238,146.817 190.160,145.755 191.391 M184.860 194.800 C 186.240 197.025,186.926 198.378,187.373 199.757 C 187.508 200.174,187.725 200.408,187.855 200.279 C 188.201 199.932,185.277 194.192,184.317 193.334 C 183.767 192.843,183.947 193.329,184.860 194.800 M160.400 195.618 C 159.962 195.915,160.124 195.952,161.000 195.756 C 162.471 195.427,162.790 195.198,161.767 195.206 C 161.345 195.209,160.730 195.395,160.400 195.618 M166.033 195.344 C 166.505 195.750,168.443 195.993,168.210 195.616 C 168.068 195.387,167.483 195.200,166.910 195.200 C 166.336 195.200,165.942 195.265,166.033 195.344 M279.259 196.029 C 270.343 199.986,269.926 215.444,278.600 220.444 C 283.702 223.385,291.533 220.709,293.945 215.200 C 299.101 203.428,289.836 191.334,279.259 196.029 M287.767 196.422 C 294.435 198.917,296.903 207.991,293.075 215.939 C 289.445 223.476,276.410 222.340,274.015 214.278 C 273.741 213.355,273.355 212.187,273.158 211.681 C 269.726 202.882,279.038 193.156,287.767 196.422 M115.342 199.400 C 115.341 201.380,115.408 202.240,115.492 201.312 C 115.576 200.384,115.577 198.764,115.495 197.712 C 115.412 196.660,115.343 197.420,115.342 199.400 M156.985 197.513 C 150.865 202.668,151.518 216.531,158.044 220.024 C 158.448 220.240,157.909 219.547,156.847 218.485 C 151.837 213.475,151.720 203.854,156.602 198.450 C 158.189 196.694,158.310 196.397,156.985 197.513 M170.400 196.891 C 170.401 196.951,171.150 197.720,172.065 198.600 C 173.300 199.788,173.551 199.924,173.037 199.128 C 172.471 198.252,170.399 196.494,170.400 196.891 M140.200 200.800 C 140.050 201.273,140.017 201.750,140.127 201.860 C 140.237 201.970,140.450 201.673,140.600 201.200 C 140.750 200.727,140.783 200.250,140.673 200.140 C 140.563 200.030,140.350 200.327,140.200 200.800 M188.238 201.800 C 188.376 202.460,188.616 205.340,188.772 208.200 C 188.964 211.730,189.093 212.629,189.175 211.000 C 189.372 207.073,189.164 204.152,188.558 202.323 C 188.244 201.375,188.100 201.140,188.238 201.800 M139.418 204.218 C 139.265 205.239,139.230 206.163,139.340 206.273 C 139.450 206.383,139.665 205.639,139.818 204.618 C 139.971 203.598,140.006 202.673,139.896 202.563 C 139.786 202.453,139.571 203.198,139.418 204.218 M115.600 203.692 C 115.600 203.852,119.245 204.032,123.700 204.092 L 131.800 204.200 131.800 209.200 L 131.800 214.200 123.600 214.413 L 115.400 214.625 123.657 214.713 C 130.870 214.789,131.945 214.720,132.157 214.167 C 132.653 212.875,132.423 204.517,131.879 204.066 C 131.290 203.577,115.599 203.216,115.600 203.692 M175.400 208.200 C 175.400 210.248,175.532 211.716,175.694 211.462 C 175.856 211.208,175.988 209.740,175.988 208.200 C 175.988 206.660,175.856 205.192,175.694 204.938 C 175.532 204.684,175.400 206.152,175.400 208.200 M139.280 211.000 C 139.280 211.660,139.424 212.650,139.600 213.200 C 139.911 214.172,139.920 214.167,139.920 213.000 C 139.920 212.340,139.776 211.350,139.600 210.800 C 139.289 209.828,139.280 209.833,139.280 211.000 M174.846 213.067 C 174.821 213.324,174.684 213.864,174.541 214.267 C 174.340 214.836,174.394 214.897,174.779 214.542 C 175.052 214.291,175.189 213.751,175.084 213.342 C 174.979 212.934,174.872 212.810,174.846 213.067 M188.243 214.233 C 188.109 214.581,187.997 215.166,187.993 215.533 C 187.968 217.725,182.971 225.338,180.381 227.128 C 179.528 227.718,178.824 228.347,178.815 228.527 C 178.786 229.150,181.158 227.172,183.178 224.890 C 185.235 222.565,188.108 217.268,188.596 214.900 C 188.875 213.543,188.662 213.140,188.243 214.233 M140.028 215.076 C 140.118 216.115,140.744 216.996,140.772 216.124 C 140.787 215.642,140.620 215.136,140.400 215.000 C 140.180 214.864,140.013 214.898,140.028 215.076 M172.989 216.958 C 172.323 217.861,170.907 219.185,169.844 219.900 C 168.780 220.615,168.079 221.200,168.286 221.200 C 169.182 221.200,172.389 218.656,173.380 217.159 C 174.803 215.008,174.530 214.868,172.989 216.958 M140.800 217.413 C 140.800 217.868,142.863 221.670,143.023 221.510 C 143.116 221.417,142.728 220.409,142.160 219.271 C 141.228 217.400,140.800 216.815,140.800 217.413 M162.200 221.619 C 162.640 221.797,163.630 221.944,164.400 221.944 C 165.170 221.944,166.160 221.797,166.600 221.619 C 167.114 221.410,166.329 221.294,164.400 221.294 C 162.471 221.294,161.686 221.410,162.200 221.619 M145.218 224.763 C 145.909 225.622,147.223 226.914,148.137 227.633 C 149.514 228.715,149.353 228.454,147.200 226.118 C 144.378 223.055,143.198 222.249,145.218 224.763 M151.200 229.783 C 151.200 230.124,155.264 232.069,155.495 231.838 C 155.614 231.719,155.235 231.441,154.653 231.220 C 154.071 230.999,153.056 230.539,152.397 230.199 C 151.739 229.858,151.200 229.671,151.200 229.783 M175.600 230.433 L 174.600 231.248 175.900 230.614 C 176.615 230.265,177.200 229.894,177.200 229.790 C 177.200 229.392,176.563 229.648,175.600 230.433 M172.800 231.600 C 172.267 231.945,172.267 231.988,172.800 231.988 C 173.130 231.988,173.670 231.813,174.000 231.600 C 174.533 231.255,174.533 231.212,174.000 231.212 C 173.670 231.212,173.130 231.387,172.800 231.600 M156.600 232.400 C 157.040 232.589,157.760 232.738,158.200 232.732 C 158.843 232.723,158.804 232.657,158.000 232.400 C 156.632 231.962,155.581 231.962,156.600 232.400 M170.200 232.400 L 169.400 232.744 170.200 232.766 C 170.640 232.778,171.270 232.613,171.600 232.400 C 172.395 231.886,171.396 231.886,170.200 232.400 M160.076 233.260 C 161.249 233.590,166.627 233.586,168.177 233.253 C 168.825 233.114,167.059 233.000,164.254 233.000 C 161.448 233.000,159.568 233.117,160.076 233.260 " stroke="none" fill="#d4d4d4" fill-rule="evenodd"></path></g></svg>